<svg xmlns="http://www.w3.org/2000/svg" xmlns:xlink="http://www.w3.org/1999/xlink" width="318" height="418" viewBox="0 0 318 418"><defs><clipPath id="b"><rect width="318" height="418"/></clipPath></defs><g id="a" clip-path="url(#b)"><rect width="318" height="418" fill="#fff"/><g transform="translate(2)" fill="#fff" stroke="#707070" stroke-width="1"><rect width="318" height="418" rx="69" stroke="none"/><rect x="0.5" y="0.5" width="317" height="417" rx="68.5" fill="none"/></g><path d="M18.709-13.593v-6.5H1.92V9.419H18.709v-6.5H9.591V-2.165H18.24v-6.5H9.591v-4.931Zm25.829-5.792a18,18,0,0,0-7.005-1.487A15.99,15.99,0,0,0,26.3-16.1,15.443,15.443,0,0,0,21.957-5.3,14.431,14.431,0,0,0,26.693,5.857,16.428,16.428,0,0,0,37.768,10.2a21.721,21.721,0,0,0,6.77-1.37v-9.2a8.823,8.823,0,0,1-6.614,3.131,7.653,7.653,0,0,1-7.984-8.023c0-4.579,3.17-8.179,7.866-8.179a8.325,8.325,0,0,1,6.731,3.248Zm19.568-1.683c-8.492,0-16.32,6.262-16.32,15.185,0,9.549,6.849,16.28,16.32,16.28s16.32-6.731,16.32-16.28C80.426-14.806,72.6-21.068,64.106-21.068Zm0,7.436c4.579,0,8.336,3.718,8.336,7.788a8.456,8.456,0,0,1-8.336,8.805,8.456,8.456,0,0,1-8.336-8.805C55.771-9.914,59.528-13.632,64.106-13.632ZM83.987,9.419h7.671V-8.662h.078l14.05,18.081h7.671V-20.089h-7.671V-2.048h-.078L91.658-20.089H83.987ZM133.3-21.068c-8.492,0-16.32,6.262-16.32,15.185,0,9.549,6.849,16.28,16.32,16.28s16.32-6.731,16.32-16.28C149.618-14.806,141.791-21.068,133.3-21.068Zm0,7.436c4.579,0,8.336,3.718,8.336,7.788A8.456,8.456,0,0,1,133.3,2.961a8.456,8.456,0,0,1-8.336-8.805C124.962-9.914,128.719-13.632,133.3-13.632Zm18.12,23.051h7.631l2.466-16.985h.078l6.77,16.985h3.053L178.5-7.566h.078L180.73,9.419H188.4L183.94-20.089h-7.631l-6.34,15.772L163.98-20.089h-7.553Zm47.9-29.508h-7.671V9.419h7.671ZM201-27.8l-4.344-3.131L191.14-24.2l3.17,2.309ZM222.41,4.292l1.918,5.127h8.179L221.392-20.089h-8.375L201.668,9.419h8.14l2.035-5.127Zm-2.074-5.87h-6.379l3.17-9.393h.078Z" transform="translate(45 68)" fill="#343434"/><text transform="translate(162 173)" fill="#343434" font-size="30" font-family="FuturaStd-Light, Futura Std" font-weight="300"><tspan x="-134.19" y="0">¿Cuál es el promedio</tspan><tspan x="-111.21" y="38">en Pesos invertido</tspan><tspan x="-63.255" y="76">en año en</tspan><tspan x="-105.06" y="114">ropa per cápita?</tspan></text></g></svg>