<svg xmlns="http://www.w3.org/2000/svg" xmlns:xlink="http://www.w3.org/1999/xlink" width="318" height="418" viewBox="0 0 318 418"><defs><clipPath id="b"><rect width="318" height="418"/></clipPath></defs><g id="a" clip-path="url(#b)"><rect width="318" height="418" fill="#fff"/><g fill="#fff" stroke="#707070" stroke-width="1"><rect width="318" height="418" rx="69" stroke="none"/><rect x="0.5" y="0.5" width="317" height="417" rx="68.5" fill="none"/></g><path d="M20.622,1.761l1.918,5.127h8.179L19.6-22.62H11.229L-.12,6.888H8.02l2.035-5.127Zm-2.074-5.87H12.169l3.17-9.393h.078Zm12.8,11h7.631L41.442-10.1h.078l6.77,16.985h3.053L58.427-10.1h.078L60.658,6.888h7.671L63.867-22.62H56.235L49.9-6.848,43.908-22.62H36.354Zm47.9-12.21h.783c2.5,0,6.3-.352,6.3,3.209,0,3.248-3.835,3.131-6.105,3.131h-.978ZM83.4,6.888c5.4,0,10.684-2.035,10.684-8.218,0-4.109-1.8-6.966-6.027-7.514v-.078c2.387-1.213,3.248-3.366,3.248-6.027,0-5.636-3.522-7.671-8.766-7.671H71.576V6.888ZM79.247-16.75h.548c2.074,0,4.461.157,4.461,2.857,0,2.5-2.113,2.857-4.148,2.857h-.861Zm26.495-5.87H98.071V6.888h7.671Zm21.8,6.5v-6.5H110.751V6.888H127.54V.392h-9.119V-4.7h8.649v-6.5h-8.649v-4.931Zm4.735,23.012h7.671V-11.192h.078l14.05,18.081h7.671V-22.62h-7.671V-4.579H154L139.946-22.62h-7.671Zm46.219-23.012h6.34v-6.5H164.484v6.5h6.34V6.888h7.671Zm25.908,0v-6.5H187.613V6.888H204.4V.392h-9.119V-4.7h8.649v-6.5h-8.649v-4.931Z" transform="translate(57.236 63.16)" fill="#343434"/><text transform="translate(159 162)" fill="#343434" font-size="30" font-family="FuturaStd-Light, Futura Std" font-weight="300"><tspan x="-140.4" y="0">¿Cuál es el porcentaje</tspan><tspan x="-138.915" y="38">de agua contaminada</tspan><tspan x="-99.795" y="76">por año gracias</tspan><tspan x="-119.34" y="114">a la industria textil?</tspan></text></g></svg>