<svg xmlns="http://www.w3.org/2000/svg" xmlns:xlink="http://www.w3.org/1999/xlink" width="318" height="418" viewBox="0 0 318 418"><defs><clipPath id="b"><rect width="318" height="418"/></clipPath></defs><g id="a" clip-path="url(#b)"><rect width="318" height="418" fill="#fff"/><g fill="#fff" stroke="#707070" stroke-width="1"><rect width="318" height="418" rx="69" stroke="none"/><rect x="0.5" y="0.5" width="317" height="417" rx="68.5" fill="none"/></g><path d="M21.485-20.748a20.182,20.182,0,0,0-9.236-2.426c-5.909,0-10.175,3.914-10.175,9.9,0,5.714,3.17,6.966,7.984,8.336,1.644.47,4.657,1.213,4.657,3.366C14.715.5,12.8,1.4,11,1.4A10.52,10.52,0,0,1,4.187-1.65L.9,4.534A18.207,18.207,0,0,0,11.271,7.9a12.945,12.945,0,0,0,8.375-2.779c2.348-2,3.053-5.009,3.053-7.945,0-4.775-3.17-6.849-7.279-8.062l-1.957-.587c-1.331-.43-3.4-1.1-3.4-2.818,0-1.644,1.879-2.466,3.287-2.466A8.07,8.07,0,0,1,18.433-14.8ZM41.171-23.37c-8.492,0-16.32,6.262-16.32,15.185,0,9.549,6.849,16.28,16.32,16.28S57.49,1.364,57.49-8.185C57.49-17.108,49.663-23.37,41.171-23.37Zm0,7.436c4.579,0,8.336,3.718,8.336,7.788A8.456,8.456,0,0,1,41.171.659a8.456,8.456,0,0,1-8.336-8.805C32.835-12.216,36.592-15.934,41.171-15.934Zm40.975-5.753a18,18,0,0,0-7.005-1.487A15.99,15.99,0,0,0,63.908-18.4,15.443,15.443,0,0,0,59.564-7.6,14.431,14.431,0,0,0,64.3,3.555,16.428,16.428,0,0,0,75.375,7.9a21.721,21.721,0,0,0,6.77-1.37v-9.2A8.823,8.823,0,0,1,75.532.464a7.653,7.653,0,0,1-7.984-8.023c0-4.579,3.17-8.179,7.866-8.179a8.325,8.325,0,0,1,6.731,3.248Zm12.406-.7H86.881V7.117h7.671Zm21.8,6.5v-6.5H99.561V7.117H116.35V.62h-9.119V-4.468h8.649v-6.5h-8.649V-15.9Zm4.735,23.012h10.88A14.84,14.84,0,0,0,146.954-7.638a14.816,14.816,0,0,0-14.989-14.754h-10.88ZM128.756-15.9h1.8c4.931,0,8.414,2.974,8.414,8.258,0,5.753-3.914,8.258-8.492,8.258h-1.722ZM168.6,1.99l1.918,5.127h8.179L167.578-22.392H159.2L147.854,7.117h8.14l2.035-5.127Zm-2.074-5.87h-6.379l3.17-9.393h.078Zm14.558,11h10.88A14.84,14.84,0,0,0,206.949-7.638,14.816,14.816,0,0,0,191.96-22.392H181.08ZM188.751-15.9h1.8c4.931,0,8.414,2.974,8.414,8.258,0,5.753-3.914,8.258-8.492,8.258h-1.722Z" transform="translate(54.635 60.261)" fill="#343434"/><text transform="translate(159 181)" fill="#343434" font-size="30" font-family="FuturaStd-Light, Futura Std" font-weight="300"><tspan x="-144.345" y="0">¿Cuántas personas son</tspan><tspan x="-150.105" y="38">esclavizadas año a año</tspan><tspan x="-131.715" y="76">por la industria textil?</tspan></text></g></svg>