<svg xmlns="http://www.w3.org/2000/svg" xmlns:xlink="http://www.w3.org/1999/xlink" width="643" height="177" viewBox="0 0 643 177"><defs><clipPath id="b"><rect width="643" height="177"/></clipPath></defs><g id="a" clip-path="url(#b)"><rect width="643" height="177" fill="#fff"/><rect width="643" height="177" rx="36" fill="#7bb9ff"/><rect width="605" height="138" rx="10" transform="translate(19 21)" fill="#ffd171"/><text transform="translate(137 109)" fill="#343434" font-size="60" font-family="FuturaStd-Light, Futura Std" font-weight="300"><tspan x="0" y="0">¡Girá la ruleta!</tspan></text><ellipse cx="4.513" cy="4.513" rx="4.513" ry="4.513" transform="matrix(-0.999, -0.052, 0.052, -0.999, 53.032, 16.001)" fill="#fff"/><ellipse cx="4.513" cy="4.513" rx="4.513" ry="4.513" transform="matrix(-0.999, -0.052, 0.052, -0.999, 53.032, 173.001)" fill="#fff"/><ellipse cx="4.513" cy="4.513" rx="4.513" ry="4.513" transform="matrix(-0.999, -0.052, 0.052, -0.999, 197.032, 16.001)" fill="#fff"/><ellipse cx="4.513" cy="4.513" rx="4.513" ry="4.513" transform="matrix(-0.999, -0.052, 0.052, -0.999, 197.032, 173.001)" fill="#fff"/><ellipse cx="4.513" cy="4.513" rx="4.513" ry="4.513" transform="matrix(-0.999, -0.052, 0.052, -0.999, 341.032, 16.001)" fill="#fff"/><ellipse cx="4.513" cy="4.513" rx="4.513" ry="4.513" transform="matrix(-0.999, -0.052, 0.052, -0.999, 341.032, 173.001)" fill="#fff"/><ellipse cx="4.513" cy="4.513" rx="4.513" ry="4.513" transform="matrix(-0.999, -0.052, 0.052, -0.999, 485.032, 16.001)" fill="#fff"/><ellipse cx="4.513" cy="4.513" rx="4.513" ry="4.513" transform="matrix(-0.999, -0.052, 0.052, -0.999, 485.032, 173.001)" fill="#fff"/><ellipse cx="4.513" cy="4.513" rx="4.513" ry="4.513" transform="matrix(-0.999, -0.052, 0.052, -0.999, 125.032, 16.001)" fill="#fff"/><ellipse cx="4.513" cy="4.513" rx="4.513" ry="4.513" transform="matrix(-0.999, -0.052, 0.052, -0.999, 125.032, 173.001)" fill="#fff"/><ellipse cx="4.513" cy="4.513" rx="4.513" ry="4.513" transform="matrix(-0.999, -0.052, 0.052, -0.999, 269.032, 16.001)" fill="#fff"/><ellipse cx="4.513" cy="4.513" rx="4.513" ry="4.513" transform="matrix(-0.999, -0.052, 0.052, -0.999, 269.032, 173.001)" fill="#fff"/><ellipse cx="4.513" cy="4.513" rx="4.513" ry="4.513" transform="matrix(-0.999, -0.052, 0.052, -0.999, 413.032, 16.001)" fill="#fff"/><ellipse cx="4.513" cy="4.513" rx="4.513" ry="4.513" transform="matrix(-0.999, -0.052, 0.052, -0.999, 413.032, 173.001)" fill="#fff"/><ellipse cx="4.513" cy="4.513" rx="4.513" ry="4.513" transform="matrix(-0.999, -0.052, 0.052, -0.999, 557.032, 16.001)" fill="#fff"/><ellipse cx="4.513" cy="4.513" rx="4.513" ry="4.513" transform="matrix(-0.999, -0.052, 0.052, -0.999, 557.032, 173.001)" fill="#fff"/><ellipse cx="4.513" cy="4.513" rx="4.513" ry="4.513" transform="matrix(-0.999, -0.052, 0.052, -0.999, 89.032, 16.001)" fill="#fff"/><ellipse cx="4.513" cy="4.513" rx="4.513" ry="4.513" transform="matrix(-0.999, -0.052, 0.052, -0.999, 89.032, 173.001)" fill="#fff"/><ellipse cx="4.513" cy="4.513" rx="4.513" ry="4.513" transform="matrix(-0.999, -0.052, 0.052, -0.999, 233.032, 16.001)" fill="#fff"/><ellipse cx="4.513" cy="4.513" rx="4.513" ry="4.513" transform="matrix(-0.999, -0.052, 0.052, -0.999, 233.032, 173.001)" fill="#fff"/><ellipse cx="4.513" cy="4.513" rx="4.513" ry="4.513" transform="matrix(-0.999, -0.052, 0.052, -0.999, 377.032, 16.001)" fill="#fff"/><ellipse cx="4.513" cy="4.513" rx="4.513" ry="4.513" transform="matrix(-0.999, -0.052, 0.052, -0.999, 377.032, 173.001)" fill="#fff"/><ellipse cx="4.513" cy="4.513" rx="4.513" ry="4.513" transform="matrix(-0.999, -0.052, 0.052, -0.999, 521.032, 16.001)" fill="#fff"/><ellipse cx="4.513" cy="4.513" rx="4.513" ry="4.513" transform="matrix(-0.999, -0.052, 0.052, -0.999, 521.032, 173.001)" fill="#fff"/><ellipse cx="4.513" cy="4.513" rx="4.513" ry="4.513" transform="matrix(-0.999, -0.052, 0.052, -0.999, 161.032, 16.001)" fill="#fff"/><ellipse cx="4.513" cy="4.513" rx="4.513" ry="4.513" transform="matrix(-0.999, -0.052, 0.052, -0.999, 161.032, 173.001)" fill="#fff"/><ellipse cx="4.513" cy="4.513" rx="4.513" ry="4.513" transform="matrix(-0.999, -0.052, 0.052, -0.999, 305.032, 16.001)" fill="#fff"/><ellipse cx="4.513" cy="4.513" rx="4.513" ry="4.513" transform="matrix(-0.999, -0.052, 0.052, -0.999, 305.032, 173.001)" fill="#fff"/><ellipse cx="4.513" cy="4.513" rx="4.513" ry="4.513" transform="matrix(-0.999, -0.052, 0.052, -0.999, 449.032, 16.001)" fill="#fff"/><ellipse cx="4.513" cy="4.513" rx="4.513" ry="4.513" transform="matrix(-0.999, -0.052, 0.052, -0.999, 449.032, 173.001)" fill="#fff"/><ellipse cx="4.513" cy="4.513" rx="4.513" ry="4.513" transform="matrix(-0.999, -0.052, 0.052, -0.999, 593.032, 16.001)" fill="#fff"/><ellipse cx="4.513" cy="4.513" rx="4.513" ry="4.513" transform="matrix(-0.999, -0.052, 0.052, -0.999, 593.032, 173.001)" fill="#fff"/><ellipse cx="4.513" cy="4.513" rx="4.513" ry="4.513" transform="matrix(-0.999, -0.052, 0.052, -0.999, 637.032, 43.001)" fill="#fff"/><ellipse cx="4.513" cy="4.513" rx="4.513" ry="4.513" transform="matrix(-0.999, -0.052, 0.052, -0.999, 13.032, 43.001)" fill="#fff"/><ellipse cx="4.513" cy="4.513" rx="4.513" ry="4.513" transform="matrix(-0.999, -0.052, 0.052, -0.999, 637.032, 115.001)" fill="#fff"/><ellipse cx="4.513" cy="4.513" rx="4.513" ry="4.513" transform="matrix(-0.999, -0.052, 0.052, -0.999, 13.032, 115.001)" fill="#fff"/><ellipse cx="4.513" cy="4.513" rx="4.513" ry="4.513" transform="matrix(-0.999, -0.052, 0.052, -0.999, 637.032, 79.001)" fill="#fff"/><ellipse cx="4.513" cy="4.513" rx="4.513" ry="4.513" transform="matrix(-0.999, -0.052, 0.052, -0.999, 13.032, 79.001)" fill="#fff"/><ellipse cx="4.513" cy="4.513" rx="4.513" ry="4.513" transform="matrix(-0.999, -0.052, 0.052, -0.999, 637.032, 151.001)" fill="#fff"/><ellipse cx="4.513" cy="4.513" rx="4.513" ry="4.513" transform="matrix(-0.999, -0.052, 0.052, -0.999, 13.032, 151.001)" fill="#fff"/></g></svg>