<svg xmlns="http://www.w3.org/2000/svg" xmlns:xlink="http://www.w3.org/1999/xlink" width="398" height="120" viewBox="0 0 398 120"><defs><clipPath id="b"><rect width="398" height="120"/></clipPath></defs><g id="a" clip-path="url(#b)"><rect width="398" height="120" fill="#fff"/><g fill="#fff" stroke="#707070" stroke-width="1"><rect width="398" height="120" rx="52" stroke="none"/><rect x="0.5" y="0.5" width="397" height="119" rx="51.5" fill="none"/></g><path d="M29.716,12.452l2.758,7.375H44.241L28.253-22.62H16.206L-.12,19.827H11.589l2.927-7.375ZM26.733,4.008H17.557L22.117-9.5h.113ZM45.141,19.827H56.119L59.665-4.606h.113l9.739,24.432h4.391L84.1-4.606h.113l3.1,24.432H98.34L91.923-22.62H80.945L71.825.067,63.212-22.62H52.347ZM114.047,2.262h1.126c3.6,0,9.064-.507,9.064,4.616,0,4.672-5.517,4.5-8.782,4.5h-1.407Zm5.967,17.564c7.769,0,15.369-2.927,15.369-11.822,0-5.911-2.59-10.021-8.669-10.809v-.113c3.434-1.745,4.672-4.841,4.672-8.669,0-8.106-5.067-11.034-12.61-11.034H103.013V19.827Zm-5.967-34h.788c2.984,0,6.418.225,6.418,4.11,0,3.6-3.04,4.11-5.967,4.11h-1.239Zm38.112-8.444H141.125V19.827h11.034Zm31.356,9.345V-22.62H159.364V19.827h24.151V10.482H170.4V3.163h12.441V-6.182H170.4v-7.093Zm6.812,33.1H201.36V-6.182h.113l20.21,26.008h11.034V-22.62H221.683V3.332h-.113L201.36-22.62H190.326Zm66.485-33.1h9.12V-22.62H236.657v9.345h9.12v33.1h11.034Zm37.267,0V-22.62H269.928V19.827h24.151V10.482H280.962V3.163H293.4V-6.182H280.962v-7.093Z" transform="translate(52.284 61.32)" fill="#343434"/></g></svg>