<svg xmlns="http://www.w3.org/2000/svg" xmlns:xlink="http://www.w3.org/1999/xlink" width="398" height="120" viewBox="0 0 398 120"><defs><clipPath id="b"><rect width="398" height="120"/></clipPath></defs><g id="a" clip-path="url(#b)"><rect width="398" height="120" fill="#fff"/><g fill="#fff" stroke="#707070" stroke-width="1"><rect width="398" height="120" rx="52" stroke="none"/><rect x="0.5" y="0.5" width="397" height="119" rx="51.5" fill="none"/></g><path d="M30.511-19.6a29.031,29.031,0,0,0-13.286-3.49c-8.5,0-14.637,5.63-14.637,14.243,0,8.219,4.56,10.021,11.484,11.991,2.364.676,6.7,1.745,6.7,4.841,0,2.984-2.758,4.278-5.348,4.278-3.772,0-7.037-1.97-9.8-4.391L.9,16.768A26.191,26.191,0,0,0,15.818,21.61a18.622,18.622,0,0,0,12.047-4c3.378-2.871,4.391-7.206,4.391-11.428,0-6.868-4.56-9.852-10.471-11.6l-2.815-.844c-1.914-.619-4.9-1.576-4.9-4.053,0-2.364,2.7-3.547,4.729-3.547a11.609,11.609,0,0,1,7.318,2.815ZM58.828-23.37c-12.216,0-23.475,9.007-23.475,21.843,0,13.736,9.852,23.419,23.475,23.419S82.3,12.209,82.3-1.527C82.3-14.363,71.044-23.37,58.828-23.37Zm0,10.7c6.587,0,11.991,5.348,11.991,11.2,0,7.318-5.4,12.666-11.991,12.666S46.837,5.847,46.837-1.471C46.837-7.326,52.241-12.674,58.828-12.674Zm58.941-8.275a25.89,25.89,0,0,0-10.077-2.139,23,23,0,0,0-16.157,6.868A22.214,22.214,0,0,0,85.286-.683,20.758,20.758,0,0,0,92.1,15.361,23.632,23.632,0,0,0,108.03,21.61c3.434,0,6.08-.844,9.739-1.97V6.41a12.691,12.691,0,0,1-9.514,4.5c-6.868,0-11.484-4.841-11.484-11.54,0-6.587,4.56-11.766,11.315-11.766a11.975,11.975,0,0,1,9.683,4.672Zm17.846-1.013H124.58V20.484h11.034Zm31.356,9.345v-9.345H142.82V20.484h24.151V11.139H153.854V3.821H166.3V-5.524H153.854v-7.093Zm6.812,33.1h15.65A21.348,21.348,0,0,0,210.993-.739a21.312,21.312,0,0,0-21.561-21.223h-15.65Zm11.034-33.1h2.59c7.093,0,12.1,4.278,12.1,11.878,0,8.275-5.63,11.878-12.216,11.878h-2.477Zm57.308,25.727,2.758,7.375h11.766L240.661-21.963H228.614L212.288,20.484H224l2.927-7.375Zm-2.984-8.444h-9.176l4.56-13.511h.113Zm20.942,15.819h15.65A21.348,21.348,0,0,0,297.294-.739a21.312,21.312,0,0,0-21.561-21.223h-15.65Zm11.034-33.1h2.59c7.093,0,12.1,4.278,12.1,11.878,0,8.275-5.63,11.878-12.216,11.878h-2.477Z" transform="translate(49.851 60.483)" fill="#343434"/></g></svg>