<svg xmlns="http://www.w3.org/2000/svg" xmlns:xlink="http://www.w3.org/1999/xlink" width="398" height="120" viewBox="0 0 398 120"><defs><clipPath id="b"><rect width="398" height="120"/></clipPath></defs><g id="a" clip-path="url(#b)"><rect width="398" height="120" fill="#fff"/><g fill="#fff" stroke="#707070" stroke-width="1"><rect width="398" height="120" rx="52" stroke="none"/><rect x="0.5" y="0.5" width="397" height="119" rx="51.5" fill="none"/></g><path d="M26.071-5.991v-9.345H1.92V27.11H26.071V17.765H12.954V10.447H25.4V1.1H12.954V-5.991Zm37.155-8.332a25.89,25.89,0,0,0-10.077-2.139A23,23,0,0,0,36.992-9.594,22.214,22.214,0,0,0,30.743,5.943a20.758,20.758,0,0,0,6.812,16.044,23.632,23.632,0,0,0,15.932,6.249c3.434,0,6.08-.844,9.739-1.97V13.036a12.691,12.691,0,0,1-9.514,4.5C46.844,17.54,42.227,12.7,42.227,6c0-6.587,4.56-11.766,11.315-11.766a11.975,11.975,0,0,1,9.683,4.672Zm28.148-2.421C79.157-16.744,67.9-7.736,67.9,5.1c0,13.736,9.852,23.419,23.475,23.419S114.848,18.835,114.848,5.1C114.848-7.736,103.589-16.744,91.373-16.744Zm0,10.7c6.587,0,11.991,5.348,11.991,11.2,0,7.318-5.4,12.666-11.991,12.666S79.382,12.474,79.382,5.155C79.382-.7,84.786-6.048,91.373-6.048Zm28.6,33.158H131V1.1h.113l20.21,26.008h11.034V-15.336H151.327V10.616h-.113L131-15.336H119.971ZM190.9-16.744c-12.216,0-23.475,9.007-23.475,21.842,0,13.736,9.852,23.419,23.475,23.419S214.378,18.835,214.378,5.1C214.378-7.736,203.119-16.744,190.9-16.744Zm0,10.7c6.587,0,11.991,5.348,11.991,11.2,0,7.318-5.4,12.666-11.991,12.666s-11.991-5.348-11.991-12.666C178.912-.7,184.316-6.048,190.9-6.048ZM216.967,27.11h10.978l3.547-24.432h.113l9.739,24.432h4.391L255.924,2.678h.113l3.1,24.432h11.034l-6.418-42.447H252.771l-9.12,22.687-8.613-22.687H224.173Zm68.905-42.447H274.839V27.11h11.034Zm2.421-11.09-6.249-4.5-7.938,9.683,4.56,3.321Zm30.793,46.162,2.758,7.375h11.766L317.623-15.336H305.576L289.25,27.11H300.96l2.927-7.375ZM316.1,11.291h-9.176l4.56-13.511h.113Z" transform="translate(31 54)" fill="#343434"/></g></svg>