<svg xmlns="http://www.w3.org/2000/svg" xmlns:xlink="http://www.w3.org/1999/xlink" width="464" height="114" viewBox="0 0 464 114"><defs><style>.a{clip-path:url(#b);}.b{fill:#343434;}.c{fill:#fff;}</style><clipPath id="b"><rect width="464" height="114"/></clipPath></defs><g id="a" class="a"><rect class="c" width="464" height="114"/><path class="b" d="M44.794-17.779A43.034,43.034,0,0,0,25.1-22.953c-12.6,0-21.7,8.345-21.7,21.113,0,12.184,6.759,14.854,17.024,17.775,3.5,1,9.93,2.587,9.93,7.177,0,4.423-4.089,6.342-7.928,6.342-5.591,0-10.431-2.921-14.52-6.509L.9,36.129a38.824,38.824,0,0,0,22.114,7.177c6.342,0,12.935-1.752,17.858-5.925,5.007-4.256,6.509-10.681,6.509-16.94,0-10.181-6.759-14.6-15.522-17.191L27.687,2c-2.837-.918-7.26-2.337-7.26-6.008,0-3.5,4.006-5.257,7.01-5.257A17.208,17.208,0,0,1,38.285-5.095ZM86.769-23.37c-18.108,0-34.8,13.352-34.8,32.378,0,20.362,14.6,34.715,34.8,34.715s34.8-14.353,34.8-34.715C121.568-10.018,104.878-23.37,86.769-23.37Zm0,15.855c9.764,0,17.775,7.928,17.775,16.606,0,10.848-8.011,18.776-17.775,18.776S68.995,19.94,68.995,9.092C68.995.413,77.006-7.515,86.769-7.515Zm87.371-12.267A38.378,38.378,0,0,0,159.2-22.953a34.1,34.1,0,0,0-23.95,10.181A32.928,32.928,0,0,0,125.99,10.26c0,9.346,3.171,17.524,10.1,23.783A35.03,35.03,0,0,0,159.7,43.306c5.09,0,9.013-1.252,14.437-2.921V20.775a18.813,18.813,0,0,1-14.1,6.676c-10.181,0-17.024-7.177-17.024-17.107C143.014.58,149.773-7.1,159.787-7.1A17.751,17.751,0,0,1,174.141-.171Zm26.453-1.5H184.238V41.637h16.356ZM247.075-7.431V-21.284h-35.8V41.637h35.8V27.784H227.632V16.936h18.442V3.083H227.632V-7.431Zm10.1,49.068h23.2c17.441,0,31.961-13.769,31.961-31.46s-14.437-31.46-31.961-31.46h-23.2ZM273.529-7.431h3.839c10.515,0,17.942,6.342,17.942,17.608,0,12.267-8.345,17.608-18.108,17.608h-3.672ZM358.48,30.705l4.089,10.932H380.01l-23.7-62.921H338.452l-24.2,62.921h17.357l4.339-10.932Zm-4.423-12.517h-13.6L347.214-1.84h.167ZM385.1,41.637h23.2c17.441,0,31.961-13.769,31.961-31.46s-14.437-31.46-31.961-31.46H385.1ZM401.456-7.431h3.839c10.515,0,17.942,6.342,17.942,17.608,0,12.267-8.345,17.608-18.109,17.608h-3.672Z" transform="translate(14.369 52.257)"/></g></svg>