<svg xmlns="http://www.w3.org/2000/svg" xmlns:xlink="http://www.w3.org/1999/xlink" width="519" height="120" viewBox="0 0 519 120"><defs><style>.a{clip-path:url(#b);}.b{fill:#343434;}.c{fill:#fff;}</style><clipPath id="b"><rect width="519" height="120"/></clipPath></defs><g id="a" class="a"><rect class="c" width="519" height="120"/><path class="b" d="M37.72,6.038V-7.815H1.92V55.106h35.8V41.254H18.276V30.405H36.718V16.553H18.276V6.038ZM92.8-6.312A38.378,38.378,0,0,0,77.859-9.484,34.1,34.1,0,0,0,53.909.7a32.928,32.928,0,0,0-9.263,23.032c0,9.346,3.171,17.524,10.1,23.783A35.03,35.03,0,0,0,78.36,56.775c5.09,0,9.012-1.252,14.437-2.921V34.244a18.813,18.813,0,0,1-14.1,6.676c-10.181,0-17.024-7.177-17.024-17.107,0-9.764,6.759-17.441,16.773-17.441A17.751,17.751,0,0,1,92.8,13.3ZM134.521-9.9c-18.108,0-34.8,13.352-34.8,32.378,0,20.362,14.6,34.715,34.8,34.715s34.8-14.353,34.8-34.715C169.319,3.451,152.629-9.9,134.521-9.9Zm0,15.855c9.764,0,17.775,7.928,17.775,16.606,0,10.848-8.011,18.776-17.775,18.776s-17.775-7.928-17.775-18.776C116.746,13.882,124.757,5.955,134.521,5.955Zm42.392,49.152h16.356V16.553h.167l29.958,38.554H239.75V-7.815H223.394v38.47h-.167L193.269-7.815H176.913ZM282.059-9.9c-18.109,0-34.8,13.352-34.8,32.378,0,20.362,14.6,34.715,34.8,34.715s34.8-14.353,34.8-34.715C316.857,3.451,300.168-9.9,282.059-9.9Zm0,15.855c9.764,0,17.775,7.928,17.775,16.606,0,10.848-8.011,18.776-17.775,18.776s-17.775-7.928-17.775-18.776C264.284,13.882,272.3,5.955,282.059,5.955ZM320.7,55.106h16.273l5.257-36.217h.167L356.83,55.106h6.509l15.1-36.217h.167l4.59,36.217h16.356L390.042-7.815H373.77l-13.519,33.63L347.483-7.815H331.378ZM422.838-7.815H406.482V55.106h16.356Zm3.588-16.439-9.263-6.676L405.4-16.577l6.759,4.923Zm45.647,68.428,4.089,10.932H493.6L469.9-7.815H452.045l-24.2,62.921H445.2l4.339-10.932ZM467.65,31.657h-13.6l6.759-20.028h.167Z" transform="translate(12 41)"/></g></svg>